<mxfile host="app.diagrams.net" modified="2024-01-07T17:01:18.312Z" agent="Mozilla/5.0 (Windows NT 10.0; Win64; x64) AppleWebKit/537.36 (KHTML, like Gecko) Chrome/119.0.0.0 Safari/537.36 OPR/105.0.0.0" etag="LEKBPE5vvO935nHSxfh1" version="22.1.17" type="device">
  <diagram name="Page-1" id="EAobG-UesGG5NIy2cZmL">
    <mxGraphModel dx="3266" dy="1066" grid="1" gridSize="10" guides="1" tooltips="1" connect="1" arrows="1" fold="1" page="1" pageScale="1" pageWidth="850" pageHeight="1100" math="0" shadow="0">
      <root>
        <mxCell id="0" />
        <mxCell id="1" parent="0" />
        <mxCell id="zUVMEjLWxA4DzXpZN6Km-2" value="Â TravelPackageManager" style="swimlane;fontStyle=2;align=center;verticalAlign=top;childLayout=stackLayout;horizontal=1;startSize=26;horizontalStack=0;resizeParent=1;resizeLast=0;collapsible=1;marginBottom=0;rounded=0;shadow=0;strokeWidth=1;" vertex="1" parent="1">
          <mxGeometry x="-50" y="170" width="270" height="166" as="geometry">
            <mxRectangle x="220" y="120" width="160" height="26" as="alternateBounds" />
          </mxGeometry>
        </mxCell>
        <mxCell id="zUVMEjLWxA4DzXpZN6Km-15" value="&lt;font style=&quot;font-size: 17px;&quot;&gt;Manages operations related to travel packages, destinations, passengers, and activities.&lt;/font&gt;" style="whiteSpace=wrap;html=1;fillColor=none;strokeWidth=0;" vertex="1" parent="zUVMEjLWxA4DzXpZN6Km-2">
          <mxGeometry y="26" width="270" height="140" as="geometry" />
        </mxCell>
        <mxCell id="zUVMEjLWxA4DzXpZN6Km-18" value="TravelPackage" style="swimlane;fontStyle=2;align=center;verticalAlign=top;childLayout=stackLayout;horizontal=1;startSize=26;horizontalStack=0;resizeParent=1;resizeLast=0;collapsible=1;marginBottom=0;rounded=0;shadow=0;strokeWidth=1;" vertex="1" parent="1">
          <mxGeometry x="580" y="170" width="270" height="166" as="geometry">
            <mxRectangle x="220" y="120" width="160" height="26" as="alternateBounds" />
          </mxGeometry>
        </mxCell>
        <mxCell id="zUVMEjLWxA4DzXpZN6Km-19" value="&lt;font style=&quot;font-size: 17px;&quot;&gt;Represents a single travel package with its attributes and methods.&lt;/font&gt;" style="whiteSpace=wrap;html=1;fillColor=none;strokeWidth=0;" vertex="1" parent="zUVMEjLWxA4DzXpZN6Km-18">
          <mxGeometry y="26" width="270" height="140" as="geometry" />
        </mxCell>
        <mxCell id="zUVMEjLWxA4DzXpZN6Km-20" value="Activity" style="swimlane;fontStyle=2;align=center;verticalAlign=top;childLayout=stackLayout;horizontal=1;startSize=26;horizontalStack=0;resizeParent=1;resizeLast=0;collapsible=1;marginBottom=0;rounded=0;shadow=0;strokeWidth=1;" vertex="1" parent="1">
          <mxGeometry x="-50" y="567" width="270" height="166" as="geometry">
            <mxRectangle x="220" y="120" width="160" height="26" as="alternateBounds" />
          </mxGeometry>
        </mxCell>
        <mxCell id="zUVMEjLWxA4DzXpZN6Km-21" value="&lt;font style=&quot;font-size: 17px;&quot;&gt;Represents an activity available at a destination.&lt;/font&gt;" style="whiteSpace=wrap;html=1;fillColor=none;strokeWidth=0;" vertex="1" parent="zUVMEjLWxA4DzXpZN6Km-20">
          <mxGeometry y="26" width="270" height="140" as="geometry" />
        </mxCell>
        <mxCell id="zUVMEjLWxA4DzXpZN6Km-22" value="Destination" style="swimlane;fontStyle=2;align=center;verticalAlign=top;childLayout=stackLayout;horizontal=1;startSize=26;horizontalStack=0;resizeParent=1;resizeLast=0;collapsible=1;marginBottom=0;rounded=0;shadow=0;strokeWidth=1;" vertex="1" parent="1">
          <mxGeometry x="580" y="554" width="270" height="166" as="geometry">
            <mxRectangle x="220" y="120" width="160" height="26" as="alternateBounds" />
          </mxGeometry>
        </mxCell>
        <mxCell id="zUVMEjLWxA4DzXpZN6Km-23" value="&lt;font style=&quot;font-size: 17px;&quot;&gt;Represents a destination within a travel package and it&#39;s activity details.&lt;/font&gt;" style="whiteSpace=wrap;html=1;fillColor=none;strokeWidth=0;" vertex="1" parent="zUVMEjLWxA4DzXpZN6Km-22">
          <mxGeometry y="26" width="270" height="140" as="geometry" />
        </mxCell>
        <mxCell id="zUVMEjLWxA4DzXpZN6Km-38" style="edgeStyle=orthogonalEdgeStyle;rounded=0;orthogonalLoop=1;jettySize=auto;html=1;exitX=0.5;exitY=0;exitDx=0;exitDy=0;entryX=0.5;entryY=1;entryDx=0;entryDy=0;" edge="1" parent="1" source="zUVMEjLWxA4DzXpZN6Km-24" target="zUVMEjLWxA4DzXpZN6Km-21">
          <mxGeometry relative="1" as="geometry" />
        </mxCell>
        <mxCell id="zUVMEjLWxA4DzXpZN6Km-39" value="&lt;font style=&quot;font-size: 15px;&quot;&gt;Signs up for activities within destinations.&lt;/font&gt;" style="edgeLabel;html=1;align=center;verticalAlign=middle;resizable=0;points=[];" vertex="1" connectable="0" parent="zUVMEjLWxA4DzXpZN6Km-38">
          <mxGeometry x="-0.0407" relative="1" as="geometry">
            <mxPoint as="offset" />
          </mxGeometry>
        </mxCell>
        <mxCell id="zUVMEjLWxA4DzXpZN6Km-24" value="Passenger" style="swimlane;fontStyle=2;align=center;verticalAlign=top;childLayout=stackLayout;horizontal=1;startSize=26;horizontalStack=0;resizeParent=1;resizeLast=0;collapsible=1;marginBottom=0;rounded=0;shadow=0;strokeWidth=1;" vertex="1" parent="1">
          <mxGeometry x="-60" y="940" width="290" height="170" as="geometry">
            <mxRectangle x="220" y="120" width="160" height="26" as="alternateBounds" />
          </mxGeometry>
        </mxCell>
        <mxCell id="zUVMEjLWxA4DzXpZN6Km-25" value="&lt;div style=&quot;-webkit-tap-highlight-color: transparent; color: var(--hotlane-on-background-color); font-size: 0.8125rem; line-height: 1.25rem; padding-top: 0px; position: relative; overflow-wrap: break-word; font-family: Roboto, arial, sans-serif; background-color: rgb(255, 255, 255);&quot; class=&quot;ptNLrf&quot;&gt;&lt;div style=&quot;-webkit-tap-highlight-color: transparent; font-size: 17px;&quot;&gt;&lt;div style=&quot;-webkit-tap-highlight-color: transparent;&quot; data-is-tv=&quot;false&quot;&gt;Represents a passenger &lt;span style=&quot;color: var(--hotlane-on-background-color);&quot;&gt;enrolled in a&amp;nbsp; &amp;nbsp;travel package, with different passenger types.&lt;/span&gt;&lt;/div&gt;&lt;/div&gt;&lt;/div&gt;" style="whiteSpace=wrap;html=1;fillColor=none;strokeWidth=0;align=center;" vertex="1" parent="zUVMEjLWxA4DzXpZN6Km-24">
          <mxGeometry y="26" width="290" height="140" as="geometry" />
        </mxCell>
        <mxCell id="zUVMEjLWxA4DzXpZN6Km-27" style="edgeStyle=orthogonalEdgeStyle;rounded=0;orthogonalLoop=1;jettySize=auto;html=1;exitX=1;exitY=0.5;exitDx=0;exitDy=0;entryX=0;entryY=0.5;entryDx=0;entryDy=0;" edge="1" parent="1" source="zUVMEjLWxA4DzXpZN6Km-15" target="zUVMEjLWxA4DzXpZN6Km-19">
          <mxGeometry relative="1" as="geometry" />
        </mxCell>
        <mxCell id="zUVMEjLWxA4DzXpZN6Km-28" value="Manages creation, &lt;br style=&quot;font-size: 15px;&quot;&gt;and access to travel packages." style="edgeLabel;html=1;align=center;verticalAlign=middle;resizable=0;points=[];fontSize=15;" vertex="1" connectable="0" parent="zUVMEjLWxA4DzXpZN6Km-27">
          <mxGeometry x="-0.1128" y="1" relative="1" as="geometry">
            <mxPoint as="offset" />
          </mxGeometry>
        </mxCell>
        <mxCell id="zUVMEjLWxA4DzXpZN6Km-29" style="edgeStyle=orthogonalEdgeStyle;rounded=0;orthogonalLoop=1;jettySize=auto;html=1;exitX=0.5;exitY=1;exitDx=0;exitDy=0;entryX=0.5;entryY=0;entryDx=0;entryDy=0;" edge="1" parent="1" source="zUVMEjLWxA4DzXpZN6Km-19" target="zUVMEjLWxA4DzXpZN6Km-22">
          <mxGeometry relative="1" as="geometry" />
        </mxCell>
        <mxCell id="zUVMEjLWxA4DzXpZN6Km-30" value=" Contains a list of destinations in the itinerary." style="edgeLabel;html=1;align=center;verticalAlign=middle;resizable=0;points=[];fontSize=15;" vertex="1" connectable="0" parent="zUVMEjLWxA4DzXpZN6Km-29">
          <mxGeometry x="-0.1327" y="1" relative="1" as="geometry">
            <mxPoint y="1" as="offset" />
          </mxGeometry>
        </mxCell>
        <mxCell id="zUVMEjLWxA4DzXpZN6Km-31" style="edgeStyle=orthogonalEdgeStyle;rounded=0;orthogonalLoop=1;jettySize=auto;html=1;exitX=0;exitY=0.5;exitDx=0;exitDy=0;entryX=1;entryY=0.5;entryDx=0;entryDy=0;" edge="1" parent="1" source="zUVMEjLWxA4DzXpZN6Km-23" target="zUVMEjLWxA4DzXpZN6Km-20">
          <mxGeometry relative="1" as="geometry" />
        </mxCell>
        <mxCell id="zUVMEjLWxA4DzXpZN6Km-33" value="&lt;font style=&quot;font-size: 15px;&quot;&gt;Contains a list of activities&lt;br style=&quot;&quot;&gt;&amp;nbsp;available at the destination.&lt;/font&gt;" style="edgeLabel;html=1;align=center;verticalAlign=middle;resizable=0;points=[];" vertex="1" connectable="0" parent="zUVMEjLWxA4DzXpZN6Km-31">
          <mxGeometry x="0.2154" y="-6" relative="1" as="geometry">
            <mxPoint as="offset" />
          </mxGeometry>
        </mxCell>
        <mxCell id="zUVMEjLWxA4DzXpZN6Km-36" style="edgeStyle=orthogonalEdgeStyle;rounded=0;orthogonalLoop=1;jettySize=auto;html=1;exitX=1;exitY=0.5;exitDx=0;exitDy=0;" edge="1" parent="1" target="zUVMEjLWxA4DzXpZN6Km-25">
          <mxGeometry relative="1" as="geometry">
            <mxPoint x="860" y="255" as="sourcePoint" />
            <mxPoint x="240" y="1045" as="targetPoint" />
            <Array as="points">
              <mxPoint x="1060" y="255" />
              <mxPoint x="1060" y="1045" />
            </Array>
          </mxGeometry>
        </mxCell>
        <mxCell id="zUVMEjLWxA4DzXpZN6Km-37" value="&lt;font style=&quot;font-size: 15px;&quot;&gt;&lt;span style=&quot;color: rgb(32, 33, 36); font-family: Roboto, arial, sans-serif; font-style: normal; font-variant-ligatures: normal; font-variant-caps: normal; font-weight: 400; letter-spacing: normal; orphans: 2; text-align: left; text-indent: 0px; text-transform: none; widows: 2; word-spacing: 0px; -webkit-text-stroke-width: 0px; background-color: rgb(255, 255, 255); text-decoration-thickness: initial; text-decoration-style: initial; text-decoration-color: initial; float: none; display: inline !important;&quot;&gt;Contains a list of passengers&lt;br&gt;&amp;nbsp;enrolled in the package.&lt;/span&gt;&lt;br&gt;&lt;/font&gt;" style="edgeLabel;html=1;align=center;verticalAlign=middle;resizable=0;points=[];" vertex="1" connectable="0" parent="zUVMEjLWxA4DzXpZN6Km-36">
          <mxGeometry x="-0.2843" y="-8" relative="1" as="geometry">
            <mxPoint as="offset" />
          </mxGeometry>
        </mxCell>
      </root>
    </mxGraphModel>
  </diagram>
</mxfile>
